{"title":"The.Croods.2013.4K UHD dj29","uid":9712906,"size":5553849643,"categoryP":"video","categoryS":"hd___movies","magnet":"?xt=urn:btih:113350193d906c642beb7596268d0703119d8351&amp;dn=The.Croods.2013.4K+UHD+dj29&amp;tr=udp%3A%2F%2Ftracker.openbittorrent.com%3A80&amp;tr=udp%3A%2F%2Fopen.demonii.com%3A1337&amp;tr=udp%3A%2F%2Ftracker.coppersurfer.tk%3A6969&amp;tr=udp%3A%2F%2Fexodus.desync.com%3A6969","seeders":1,"leechers":56,"uploader":"dj29","files":1,"time":1394128827,"description":"General\n\nComplete name                  : The.Croods.2013.4K UHD.mkv\nFormat                         : Matroska\nFormat version                 : Version 4 / Version 2\nFile size                      : 5.17 GiB\nDuration                       : 1h 38mn\nOverall bit rate               : 7 509 Kbps\nEncoded date                   : UTC 2014-03-06 07:32:27\nWriting application            : mkvmerge v6.8.0 ('Theme for Great Cities') 32bit built on Mar  2 2014 21:27:07\nWriting library                : libebml v1.3.0 + libmatroska v1.4.1\n\nVideo\nID                             : 1\nFormat                         : HEVC\nFormat/Info                    : High Efficiency Video Coding\nCodec ID                       : V_MPEGH/ISO/HEVC\nDuration                       : 1h 38mn\nBit rate                       : 5 851 Kbps\nWidth                          : 3 840 pixels\nHeight                         : 1 632 pixels\nDisplay aspect ratio           : 2.35:1\nFrame rate mode                : Constant\nFrame rate                     : 23.976 fps\nBits/(Pixel*Frame)             : 0.039\nStream size                    : 4.03 GiB (78%)\nLanguage                       : English\nDefault                        : Yes\nForced                         : No\n\nAudio\nID                             : 2\nFormat                         : DTS\nFormat/Info                    : Digital Theater Systems\nMode                           : 16\nFormat settings, Endianness    : Big\nCodec ID                       : A_DTS\nDuration                       : 1h 38mn\nBit rate mode                  : Constant\nBit rate                       : 1 509 Kbps\nChannel(s)                     : 6 channels\nChannel positions              : Front: L C R, Side: L R, LFE\nSampling rate                  : 48.0 KHz\nBit depth                      : 24 bits\nCompression mode               : Lossy\nStream size                    : 1.04 GiB (20%)\nLanguage                       : English\nDefault                        : No\nForced                         : No\n\nMenu\n00:00:00.000                   : en:00:00:00.000\n00:02:34.988                   : en:00:02:34.988\n00:04:51.750                   : en:00:04:51.750\n00:09:01.249                   : en:00:09:01.249\n00:12:21.115                   : en:00:12:21.115\n00:14:04.802                   : en:00:14:04.802\n00:18:33.029                   : en:00:18:33.029\n00:21:56.982                   : en:00:21:56.982\n00:23:24.737                   : en:00:23:24.737\n00:26:49.775                   : en:00:26:49.775\n00:28:37.132                   : en:00:28:37.132\n00:30:25.657                   : en:00:30:25.657\n00:32:48.633                   : en:00:32:48.633\n00:36:03.370                   : en:00:36:03.370\n00:38:33.561                   : en:00:38:33.561\n00:41:34.534                   : en:00:41:34.534\n00:44:38.843                   : en:00:44:38.843\n00:48:02.630                   : en:00:48:02.630\n00:52:10.961                   : en:00:52:10.961\n00:55:17.481                   : en:00:55:17.481\n01:00:14.778                   : en:01:00:14.778\n01:03:58.084                   : en:01:03:58.084\n01:05:48.736                   : en:01:05:48.736\n01:08:44.037                   : en:01:08:44.037\n01:10:47.285                   : en:01:10:47.285\n01:12:37.144                   : en:01:12:37.144\n01:14:01.646                   : en:01:14:01.646\n01:19:48.575                   : en:01:19:48.575\n01:23:09.860                   : en:01:23:09.860\n01:25:16.737                   : en:01:25:16.737\n01:28:04.321                   : en:01:28:04.321\n01:30:02.230                   : en:01:30:02.230\n01:38:36.661                   : en:01:38:36.661\n\nscreenshots:\n\n[url=http://postimg.org/image/tnwgvdgjr/full/][img=http://s7.postimg.org/5wx3d9gcr/vlcsnap_2014_03_06_17h48m46s164.png][/url]\n\n[url=http://postimg.org/image/tnwgvdgjr/][img]http://s7.postimg.org/tnwgvdgjr/vlcsnap_2014_03_06_17h48m46s164.jpg[/img][/url]","torrent":{"xt":"urn:btih:113350193d906c642beb7596268d0703119d8351","amp;dn":"The.Croods.2013.4K+UHD+dj29","amp;tr":["udp%3A%2F%2Ftracker.openbittorrent.com%3A80","udp%3A%2F%2Fopen.demonii.com%3A1337","udp%3A%2F%2Ftracker.coppersurfer.tk%3A6969","udp%3A%2F%2Fexodus.desync.com%3A6969"],"infoHash":"113350193d906c642beb7596268d0703119d8351","infoHashBuffer":{"type":"Buffer","data":[17,51,80,25,61,144,108,100,43,235,117,150,38,141,7,3,17,157,131,81]},"announce":[],"urlList":[]}}